<svg width="25" height="24" viewBox="0 0 25 24" fill="none" xmlns="http://www.w3.org/2000/svg">
<path fill-rule="evenodd" clip-rule="evenodd" d="M9.84961 5C9.84961 4.46957 10.0603 3.96086 10.4354 3.58579C10.8105 3.21071 11.3192 3 11.8496 3H13.8496C14.38 3 14.8888 3.21071 15.2638 3.58579C15.6389 3.96086 15.8496 4.46957 15.8496 5V9H19.8496C20.38 9 20.8888 9.21071 21.2638 9.58579C21.6389 9.96086 21.8496 10.4696 21.8496 11V13C21.8496 13.5304 21.6389 14.0391 21.2638 14.4142C20.8888 14.7893 20.38 15 19.8496 15H15.8496V19C15.8496 19.5304 15.6389 20.0391 15.2638 20.4142C14.8888 20.7893 14.38 21 13.8496 21H11.8496C11.3192 21 10.8105 20.7893 10.4354 20.4142C10.0603 20.0391 9.84961 19.5304 9.84961 19V15H5.84961C5.31918 15 4.81047 14.7893 4.4354 14.4142C4.06032 14.0391 3.84961 13.5304 3.84961 13V11C3.84961 10.4696 4.06032 9.96086 4.4354 9.58579C4.81047 9.21071 5.31918 9 5.84961 9H9.84961V5Z" fill="white"/>
</svg>
