<svg width="25" height="24" viewBox="0 0 25 24" fill="none" xmlns="http://www.w3.org/2000/svg">
<path d="M9.84961 6H11.8496V4H9.84961V6ZM13.8496 6V4H15.8496V6H13.8496ZM9.84961 14V12H11.8496V14H9.84961ZM17.8496 10V8H19.8496V10H17.8496ZM17.8496 14V12H19.8496V14H17.8496ZM13.8496 14V12H15.8496V14H13.8496ZM17.8496 6V4H19.8496V6H17.8496ZM11.8496 8V6H13.8496V8H11.8496ZM6.84961 20C6.56628 20 6.32894 19.904 6.13761 19.712C5.94628 19.52 5.85028 19.2827 5.84961 19V5C5.84961 4.71667 5.94561 4.47934 6.13761 4.288C6.32961 4.09667 6.56694 4.00067 6.84961 4C7.13228 3.99934 7.36994 4.09534 7.56261 4.288C7.75528 4.48067 7.85094 4.718 7.84961 5V6H9.84961V8H7.84961V10H9.84961V12H7.84961V19C7.84961 19.2833 7.75361 19.521 7.56161 19.713C7.36961 19.905 7.13228 20.0007 6.84961 20ZM15.8496 12V10H17.8496V12H15.8496ZM11.8496 12V10H13.8496V12H11.8496ZM9.84961 10V8H11.8496V10H9.84961ZM13.8496 10V8H15.8496V10H13.8496ZM15.8496 8V6H17.8496V8H15.8496Z" fill="white"/>
</svg>
