<svg width="25" height="24" viewBox="0 0 25 24" fill="none" xmlns="http://www.w3.org/2000/svg">
<path d="M12.8496 2.95398C14.9246 2.95387 16.9482 3.59924 18.64 4.80063C20.3318 6.00202 21.608 7.69993 22.2917 9.65904C22.9754 11.6181 23.0327 13.7414 22.4557 15.7346C21.8788 17.7277 20.6961 19.492 19.0716 20.783C18.8947 20.9235 18.6755 21 18.4496 21H7.24959C7.02369 21 6.80446 20.9235 6.62758 20.783C5.00308 19.492 3.82039 17.7277 3.24342 15.7346C2.66645 13.7414 2.72379 11.6181 3.40748 9.65904C4.09118 7.69993 5.36737 6.00202 7.05917 4.80063C8.75098 3.59924 10.7746 2.95387 12.8496 2.95398ZM17.0566 8.79298C16.8691 8.60551 16.6147 8.50019 16.3496 8.50019C16.0844 8.50019 15.8301 8.60551 15.6426 8.79298L13.3666 11.067C13.0798 10.9907 12.7797 10.9792 12.488 11.0331C12.1962 11.087 11.9201 11.2051 11.6795 11.3787C11.4389 11.5524 11.2399 11.7774 11.0969 12.0373C10.9539 12.2973 10.8705 12.5858 10.8526 12.882L10.8496 13C10.8501 13.2843 10.9113 13.5653 11.029 13.8241C11.1467 14.083 11.3182 14.3138 11.5321 14.5011C11.7461 14.6884 11.9975 14.8279 12.2696 14.9104C12.5417 14.9928 12.8283 15.0163 13.1102 14.9792C13.3922 14.9422 13.6629 14.8454 13.9045 14.6955C14.1461 14.5455 14.3529 14.3457 14.5112 14.1095C14.6694 13.8732 14.7755 13.606 14.8223 13.3255C14.8691 13.045 14.8556 12.7578 14.7826 12.483L17.0566 10.207C17.2441 10.0195 17.3494 9.76514 17.3494 9.49998C17.3494 9.23482 17.2441 8.98051 17.0566 8.79298Z" fill="white"/>
</svg>
