<svg width="25" height="24" viewBox="0 0 25 24" fill="none" xmlns="http://www.w3.org/2000/svg">
<path d="M5.84961 6.49998V17.5H1.84961V6.49998H5.84961ZM7.84961 18.21L15.8496 22.71V1.28998L7.84961 5.78998V18.21ZM22.4306 7.77998L21.8286 6.98098L20.2326 8.18698L20.8346 8.98498C21.4906 9.85336 21.8453 10.912 21.8449 12.0003C21.8445 13.0886 21.4891 14.147 20.8326 15.015L20.2296 15.812L21.8246 17.018L22.4276 16.221C23.3468 15.0059 23.8444 13.5241 23.8449 12.0005C23.8455 10.4769 23.3489 8.99473 22.4306 7.77898" fill="white"/>
<path d="M19.6386 9.889L19.0356 9.091L17.4396 10.296L18.0426 11.094C18.2395 11.3545 18.346 11.672 18.346 11.9985C18.346 12.325 18.2395 12.6426 18.0426 12.903L17.4386 13.7L19.0336 14.907L19.6366 14.109C20.096 13.5016 20.3448 12.7609 20.3451 11.9993C20.3455 11.2378 20.0974 10.4968 19.6386 9.889Z" fill="white"/>
</svg>
