<svg width="19" height="18" viewBox="0 0 19 18" fill="none" xmlns="http://www.w3.org/2000/svg">
<path d="M15.8496 18C15.0163 18 14.3079 17.7375 13.7246 17.2125C13.1413 16.6875 12.8496 16.05 12.8496 15.3C12.8496 15.21 12.8746 15 12.9246 14.67L5.89961 10.98C5.63294 11.205 5.32461 11.3814 4.97461 11.5092C4.62461 11.637 4.24961 11.7006 3.84961 11.7C3.01628 11.7 2.30794 11.4375 1.72461 10.9125C1.14128 10.3875 0.849609 9.75 0.849609 9C0.849609 8.25 1.14128 7.6125 1.72461 7.0875C2.30794 6.5625 3.01628 6.3 3.84961 6.3C4.24961 6.3 4.62461 6.3639 4.97461 6.4917C5.32461 6.6195 5.63294 6.7956 5.89961 7.02L12.9246 3.33C12.8913 3.225 12.8706 3.1239 12.8626 3.0267C12.8546 2.9295 12.8503 2.8206 12.8496 2.7C12.8496 1.95 13.1413 1.3125 13.7246 0.7875C14.3079 0.2625 15.0163 0 15.8496 0C16.6829 0 17.3913 0.2625 17.9746 0.7875C18.5579 1.3125 18.8496 1.95 18.8496 2.7C18.8496 3.45 18.5579 4.0875 17.9746 4.6125C17.3913 5.1375 16.6829 5.4 15.8496 5.4C15.4496 5.4 15.0746 5.3361 14.7246 5.2083C14.3746 5.0805 14.0663 4.9044 13.7996 4.68L6.77461 8.37C6.80794 8.475 6.82894 8.5764 6.83761 8.6742C6.84628 8.772 6.85028 8.8806 6.84961 9C6.84894 9.1194 6.84494 9.2283 6.83761 9.3267C6.83028 9.4251 6.80928 9.5262 6.77461 9.63L13.7996 13.32C14.0663 13.095 14.3746 12.9189 14.7246 12.7917C15.0746 12.6645 15.4496 12.6006 15.8496 12.6C16.6829 12.6 17.3913 12.8625 17.9746 13.3875C18.5579 13.9125 18.8496 14.55 18.8496 15.3C18.8496 16.05 18.5579 16.6875 17.9746 17.2125C17.3913 17.7375 16.6829 18 15.8496 18Z" fill="white"/>
</svg>
