<svg width="21" height="20" viewBox="0 0 21 20" fill="none" xmlns="http://www.w3.org/2000/svg">
<g clip-path="url(#clip0_166_857)">
<path d="M1.27639 9.95753C1.27592 11.651 1.71842 13.3046 2.55983 14.7621L1.19592 19.742L6.29217 18.4057C7.70173 19.1731 9.28103 19.5751 10.8859 19.5753H10.8901C16.1882 19.5753 20.5009 15.2641 20.5032 9.96511C20.5042 7.39737 19.5051 4.98284 17.69 3.16628C15.8751 1.34987 13.4615 0.349011 10.8898 0.347839C5.59108 0.347839 1.27866 4.65878 1.27647 9.95753" fill="url(#paint0_linear_166_857)"/>
<path d="M0.933203 9.95438C0.932656 11.7088 1.39102 13.4216 2.26242 14.9312L0.849609 20.0896L6.12859 18.7055C7.58313 19.4985 9.22078 19.9166 10.8872 19.9173H10.8915C16.3796 19.9173 20.8473 15.451 20.8496 9.96234C20.8505 7.30234 19.8155 4.80102 17.9355 2.91937C16.0553 1.03797 13.5553 0.00109375 10.8915 0C5.40242 0 0.935391 4.46563 0.933203 9.95438ZM4.07703 14.6713L3.87992 14.3584C3.05133 13.0409 2.61398 11.5184 2.61461 9.955C2.61633 5.39289 6.32914 1.68125 10.8946 1.68125C13.1055 1.68219 15.1834 2.54406 16.7462 4.10781C18.3089 5.67172 19.1688 7.75063 19.1683 9.96172C19.1663 14.5238 15.4534 18.2359 10.8915 18.2359H10.8882C9.40281 18.2352 7.94602 17.8363 6.67555 17.0824L6.3732 16.9031L3.24055 17.7245L4.07703 14.6713Z" fill="url(#paint1_linear_166_857)"/>
<path d="M8.40258 5.79283C8.21617 5.37853 8.02 5.37017 7.84273 5.36291C7.69758 5.35666 7.53164 5.35712 7.36586 5.35712C7.19992 5.35712 6.93031 5.41955 6.70242 5.66837C6.47429 5.91744 5.83148 6.51931 5.83148 7.74345C5.83148 8.96759 6.72312 10.1507 6.84742 10.3169C6.97187 10.4828 8.56875 13.0753 11.0978 14.0726C13.1997 14.9014 13.6274 14.7366 14.0836 14.695C14.5398 14.6536 15.5558 14.0933 15.763 13.5123C15.9705 12.9313 15.9705 12.4334 15.9083 12.3293C15.8461 12.2256 15.6802 12.1634 15.4313 12.039C15.1825 11.9146 13.9591 11.3126 13.7311 11.2295C13.503 11.1466 13.3371 11.1052 13.1712 11.3543C13.0052 11.6031 12.5287 12.1634 12.3835 12.3293C12.2384 12.4956 12.0932 12.5163 11.8444 12.3919C11.5955 12.267 10.7941 12.0046 9.84344 11.157C9.10375 10.4975 8.60437 9.68306 8.45922 9.43392C8.31406 9.18517 8.44367 9.05033 8.56844 8.92634C8.68023 8.81486 8.81734 8.6358 8.94187 8.49056C9.06594 8.34525 9.10734 8.24158 9.19031 8.07564C9.27336 7.90955 9.23179 7.76423 9.16969 7.63978C9.10734 7.51533 8.62383 6.28478 8.40258 5.79283Z" fill="white"/>
</g>
<defs>
<linearGradient id="paint0_linear_166_857" x1="966.559" y1="1939.76" x2="966.559" y2="0.347839" gradientUnits="userSpaceOnUse">
<stop stop-color="#1EAF38"/>
<stop offset="1" stop-color="#60D669"/>
</linearGradient>
<linearGradient id="paint1_linear_166_857" x1="1000.85" y1="2008.96" x2="1000.85" y2="0" gradientUnits="userSpaceOnUse">
<stop stop-color="#F9F9F9"/>
<stop offset="1" stop-color="white"/>
</linearGradient>
<clipPath id="clip0_166_857">
<rect width="20" height="20" fill="white" transform="translate(0.849609)"/>
</clipPath>
</defs>
</svg>
